<?xml version="1.0" encoding="UTF-8" standalone="no"?>
<!DOCTYPE svg PUBLIC "-//W3C//DTD SVG 1.1//EN"
 "http://www.w3.org/Graphics/SVG/1.1/DTD/svg11.dtd">
<!-- Generated by graphviz version 2.40.1 (20161225.0304)
 -->
<!-- Title: dependencies Pages: 1 -->
<svg width="504pt" height="211pt"
 viewBox="0.00 0.00 504.00 211.00" xmlns="http://www.w3.org/2000/svg" xmlns:xlink="http://www.w3.org/1999/xlink">
<g id="graph0" class="graph" transform="scale(1 1) rotate(0) translate(4 207)">
<title>dependencies</title>
<polygon fill="#ffffff" stroke="transparent" points="-4,4 -4,-207 500,-207 500,4 -4,4"/>
<text text-anchor="start" x="227.0091" y="-42.4" font-family="sans-serif" font-weight="bold" font-size="14.00" fill="#000000">Legend</text>
<polygon fill="#ffffb3" stroke="transparent" points="14,-10 14,-30 34,-30 34,-10 14,-10"/>
<text text-anchor="start" x="37.629" y="-15.4" font-family="sans-serif" font-size="14.00" fill="#000000"> &#160;Declarations</text>
<polygon fill="#8dd3c7" stroke="transparent" points="127,-10 127,-30 147,-30 147,-10 127,-10"/>
<text text-anchor="start" x="150.7251" y="-15.4" font-family="sans-serif" font-size="14.00" fill="#000000"> &#160;Module</text>
<polygon fill="#80b1d3" stroke="transparent" points="213,-10 213,-30 233,-30 233,-10 213,-10"/>
<text text-anchor="start" x="236.7812" y="-15.4" font-family="sans-serif" font-size="14.00" fill="#000000"> &#160;Bootstrap</text>
<polygon fill="#fdb462" stroke="transparent" points="310,-10 310,-30 330,-30 330,-10 310,-10"/>
<text text-anchor="start" x="333.6732" y="-15.4" font-family="sans-serif" font-size="14.00" fill="#000000"> &#160;Providers</text>
<polygon fill="#fb8072" stroke="transparent" points="406,-10 406,-30 426,-30 426,-10 406,-10"/>
<text text-anchor="start" x="429.7258" y="-15.4" font-family="sans-serif" font-size="14.00" fill="#000000"> &#160;Exports</text>
<g id="clust1" class="cluster">
<title>cluster_WaiterModule</title>
<polygon fill="none" stroke="#000000" stroke-dasharray="1,5" points="94,-70 94,-195 402,-195 402,-70 94,-70"/>
</g>
<g id="clust2" class="cluster">
<title>cluster_WaiterModule_declarations</title>
<polygon fill="none" stroke="#000000" points="258,-78 258,-130 394,-130 394,-78 258,-78"/>
</g>
<g id="clust7" class="cluster">
<title>cluster_WaiterModule_providers</title>
<polygon fill="none" stroke="#000000" points="102,-78 102,-130 250,-130 250,-78 102,-78"/>
</g>
<!-- WaiterComponent -->
<g id="node1" class="node">
<title>WaiterComponent</title>
<polygon fill="#ffffb3" stroke="#000000" points="385.9187,-122 266.0813,-122 266.0813,-86 385.9187,-86 385.9187,-122"/>
<text text-anchor="middle" x="326" y="-99.8" font-family="Times,serif" font-size="14.00" fill="#000000">WaiterComponent</text>
</g>
<!-- WaiterModule -->
<g id="node2" class="node">
<title>WaiterModule</title>
<polygon fill="#8dd3c7" stroke="#000000" points="299.6361,-187 296.6361,-191 275.6361,-191 272.6361,-187 202.3639,-187 202.3639,-151 299.6361,-151 299.6361,-187"/>
<text text-anchor="middle" x="251" y="-164.8" font-family="Times,serif" font-size="14.00" fill="#000000">WaiterModule</text>
</g>
<!-- WaiterComponent&#45;&gt;WaiterModule -->
<g id="edge1" class="edge">
<title>WaiterComponent&#45;&gt;WaiterModule</title>
<path fill="none" stroke="#000000" d="M283.0544,-122.1061C283.0544,-122.1061 283.0544,-140.991 283.0544,-140.991"/>
<polygon fill="#000000" stroke="#000000" points="279.5544,-140.9909 283.0544,-150.991 286.5544,-140.991 279.5544,-140.9909"/>
</g>
<!-- WaiterService -->
<g id="node3" class="node">
<title>WaiterService</title>
<ellipse fill="#fdb462" stroke="#000000" cx="176" cy="-104" rx="66.0261" ry="18"/>
<text text-anchor="middle" x="176" y="-99.8" font-family="Times,serif" font-size="14.00" fill="#000000">WaiterService</text>
</g>
<!-- WaiterService&#45;&gt;WaiterModule -->
<g id="edge2" class="edge">
<title>WaiterService&#45;&gt;WaiterModule</title>
<path fill="none" stroke="#000000" d="M222.2225,-117.1537C222.2225,-117.1537 222.2225,-140.6938 222.2225,-140.6938"/>
<polygon fill="#000000" stroke="#000000" points="218.7226,-140.6938 222.2225,-150.6938 225.7226,-140.6939 218.7226,-140.6938"/>
</g>
</g>
</svg>
