<?xml version="1.0" encoding="UTF-8" standalone="no"?>
<!DOCTYPE svg PUBLIC "-//W3C//DTD SVG 1.1//EN"
 "http://www.w3.org/Graphics/SVG/1.1/DTD/svg11.dtd">
<!-- Generated by graphviz version 2.40.1 (20161225.0304)
 -->
<!-- Title: dependencies Pages: 1 -->
<svg width="851pt" height="211pt"
 viewBox="0.00 0.00 851.00 211.00" xmlns="http://www.w3.org/2000/svg" xmlns:xlink="http://www.w3.org/1999/xlink">
<g id="graph0" class="graph" transform="scale(1 1) rotate(0) translate(4 207)">
<title>dependencies</title>
<polygon fill="#ffffff" stroke="transparent" points="-4,4 -4,-207 847,-207 847,4 -4,4"/>
<text text-anchor="start" x="400.5091" y="-42.4" font-family="sans-serif" font-weight="bold" font-size="14.00" fill="#000000">Legend</text>
<polygon fill="#ffffb3" stroke="transparent" points="187.5,-10 187.5,-30 207.5,-30 207.5,-10 187.5,-10"/>
<text text-anchor="start" x="211.129" y="-15.4" font-family="sans-serif" font-size="14.00" fill="#000000"> &#160;Declarations</text>
<polygon fill="#8dd3c7" stroke="transparent" points="300.5,-10 300.5,-30 320.5,-30 320.5,-10 300.5,-10"/>
<text text-anchor="start" x="324.2251" y="-15.4" font-family="sans-serif" font-size="14.00" fill="#000000"> &#160;Module</text>
<polygon fill="#80b1d3" stroke="transparent" points="386.5,-10 386.5,-30 406.5,-30 406.5,-10 386.5,-10"/>
<text text-anchor="start" x="410.2812" y="-15.4" font-family="sans-serif" font-size="14.00" fill="#000000"> &#160;Bootstrap</text>
<polygon fill="#fdb462" stroke="transparent" points="483.5,-10 483.5,-30 503.5,-30 503.5,-10 483.5,-10"/>
<text text-anchor="start" x="507.1732" y="-15.4" font-family="sans-serif" font-size="14.00" fill="#000000"> &#160;Providers</text>
<polygon fill="#fb8072" stroke="transparent" points="579.5,-10 579.5,-30 599.5,-30 599.5,-10 579.5,-10"/>
<text text-anchor="start" x="603.2258" y="-15.4" font-family="sans-serif" font-size="14.00" fill="#000000"> &#160;Exports</text>
<g id="clust1" class="cluster">
<title>cluster_ItemModuleModule</title>
<polygon fill="none" stroke="#000000" stroke-dasharray="1,5" points="8,-70 8,-195 835,-195 835,-70 8,-70"/>
</g>
<g id="clust2" class="cluster">
<title>cluster_ItemModuleModule_declarations</title>
<polygon fill="none" stroke="#000000" points="350,-78 350,-130 827,-130 827,-78 350,-78"/>
</g>
<g id="clust10" class="cluster">
<title>cluster_ItemModuleModule_providers</title>
<polygon fill="none" stroke="#000000" points="16,-78 16,-130 342,-130 342,-78 16,-78"/>
</g>
<!-- ListItemComponent -->
<g id="node1" class="node">
<title>ListItemComponent</title>
<polygon fill="#ffffb3" stroke="#000000" points="819.2674,-122 690.7326,-122 690.7326,-86 819.2674,-86 819.2674,-122"/>
<text text-anchor="middle" x="755" y="-99.8" font-family="Times,serif" font-size="14.00" fill="#000000">ListItemComponent</text>
</g>
<!-- ItemModuleModule -->
<g id="node5" class="node">
<title>ItemModuleModule</title>
<polygon fill="#8dd3c7" stroke="#000000" points="521.2562,-187 518.2562,-191 497.2562,-191 494.2562,-187 392.7438,-187 392.7438,-151 521.2562,-151 521.2562,-187"/>
<text text-anchor="middle" x="457" y="-164.8" font-family="Times,serif" font-size="14.00" fill="#000000">ItemModuleModule</text>
</g>
<!-- ListItemComponent&#45;&gt;ItemModuleModule -->
<g id="edge1" class="edge">
<title>ListItemComponent&#45;&gt;ItemModuleModule</title>
<path fill="none" stroke="#000000" d="M755,-122.2843C755,-143.3211 755,-175 755,-175 755,-175 531.2947,-175 531.2947,-175"/>
<polygon fill="#000000" stroke="#000000" points="531.2947,-171.5001 521.2947,-175 531.2946,-178.5001 531.2947,-171.5001"/>
</g>
<!-- FormComponent -->
<g id="node2" class="node">
<title>FormComponent</title>
<polygon fill="#ffffb3" stroke="#000000" points="672.6667,-122 561.3333,-122 561.3333,-86 672.6667,-86 672.6667,-122"/>
<text text-anchor="middle" x="617" y="-99.8" font-family="Times,serif" font-size="14.00" fill="#000000">FormComponent</text>
</g>
<!-- FormComponent&#45;&gt;ItemModuleModule -->
<g id="edge2" class="edge">
<title>FormComponent&#45;&gt;ItemModuleModule</title>
<path fill="none" stroke="#000000" d="M617,-122.0225C617,-139.3734 617,-163 617,-163 617,-163 531.6169,-163 531.6169,-163"/>
<polygon fill="#000000" stroke="#000000" points="531.617,-159.5001 521.6169,-163 531.6169,-166.5001 531.617,-159.5001"/>
</g>
<!-- FilterPipe -->
<g id="node3" class="node">
<title>FilterPipe</title>
<polygon fill="#ffffb3" stroke="#000000" points="543.7177,-122 472.2823,-122 472.2823,-86 543.7177,-86 543.7177,-122"/>
<text text-anchor="middle" x="508" y="-99.8" font-family="Times,serif" font-size="14.00" fill="#000000">FilterPipe</text>
</g>
<!-- FilterPipe&#45;&gt;ItemModuleModule -->
<g id="edge3" class="edge">
<title>FilterPipe&#45;&gt;ItemModuleModule</title>
<path fill="none" stroke="#000000" d="M496.8847,-122.1061C496.8847,-122.1061 496.8847,-140.991 496.8847,-140.991"/>
<polygon fill="#000000" stroke="#000000" points="493.3847,-140.9909 496.8847,-150.991 500.3847,-140.991 493.3847,-140.9909"/>
</g>
<!-- StateDirective -->
<g id="node4" class="node">
<title>StateDirective</title>
<polygon fill="#ffffb3" stroke="#000000" points="454.0758,-122 357.9242,-122 357.9242,-86 454.0758,-86 454.0758,-122"/>
<text text-anchor="middle" x="406" y="-99.8" font-family="Times,serif" font-size="14.00" fill="#000000">StateDirective</text>
</g>
<!-- StateDirective&#45;&gt;ItemModuleModule -->
<g id="edge4" class="edge">
<title>StateDirective&#45;&gt;ItemModuleModule</title>
<path fill="none" stroke="#000000" d="M423.33,-122.1061C423.33,-122.1061 423.33,-140.991 423.33,-140.991"/>
<polygon fill="#000000" stroke="#000000" points="419.83,-140.9909 423.33,-150.991 426.83,-140.991 419.83,-140.9909"/>
</g>
<!-- CollectionService -->
<g id="node6" class="node">
<title>CollectionService</title>
<ellipse fill="#fdb462" stroke="#000000" cx="254" cy="-104" rx="80.4519" ry="18"/>
<text text-anchor="middle" x="254" y="-99.8" font-family="Times,serif" font-size="14.00" fill="#000000">CollectionService</text>
</g>
<!-- CollectionService&#45;&gt;ItemModuleModule -->
<g id="edge5" class="edge">
<title>CollectionService&#45;&gt;ItemModuleModule</title>
<path fill="none" stroke="#000000" d="M254,-122.0225C254,-139.3734 254,-163 254,-163 254,-163 382.4906,-163 382.4906,-163"/>
<polygon fill="#000000" stroke="#000000" points="382.4906,-166.5001 392.4906,-163 382.4906,-159.5001 382.4906,-166.5001"/>
</g>
<!-- WaiterService -->
<g id="node7" class="node">
<title>WaiterService</title>
<ellipse fill="#fdb462" stroke="#000000" cx="90" cy="-104" rx="66.0261" ry="18"/>
<text text-anchor="middle" x="90" y="-99.8" font-family="Times,serif" font-size="14.00" fill="#000000">WaiterService</text>
</g>
<!-- WaiterService&#45;&gt;ItemModuleModule -->
<g id="edge6" class="edge">
<title>WaiterService&#45;&gt;ItemModuleModule</title>
<path fill="none" stroke="#000000" d="M90,-122.2843C90,-143.3211 90,-175 90,-175 90,-175 382.6535,-175 382.6535,-175"/>
<polygon fill="#000000" stroke="#000000" points="382.6535,-178.5001 392.6535,-175 382.6535,-171.5001 382.6535,-178.5001"/>
</g>
</g>
</svg>
