<?xml version="1.0" encoding="UTF-8" standalone="no"?>
<!DOCTYPE svg PUBLIC "-//W3C//DTD SVG 1.1//EN"
 "http://www.w3.org/Graphics/SVG/1.1/DTD/svg11.dtd">
<!-- Generated by graphviz version 2.40.1 (20161225.0304)
 -->
<!-- Title: dependencies Pages: 1 -->
<svg width="1699pt" height="284pt"
 viewBox="0.00 0.00 1699.00 284.00" xmlns="http://www.w3.org/2000/svg" xmlns:xlink="http://www.w3.org/1999/xlink">
<g id="graph0" class="graph" transform="scale(1 1) rotate(0) translate(4 280)">
<title>dependencies</title>
<polygon fill="#ffffff" stroke="transparent" points="-4,4 -4,-280 1695,-280 1695,4 -4,4"/>
<text text-anchor="start" x="824.5091" y="-42.4" font-family="sans-serif" font-weight="bold" font-size="14.00" fill="#000000">Legend</text>
<polygon fill="#ffffb3" stroke="transparent" points="611.5,-10 611.5,-30 631.5,-30 631.5,-10 611.5,-10"/>
<text text-anchor="start" x="635.129" y="-15.4" font-family="sans-serif" font-size="14.00" fill="#000000"> &#160;Declarations</text>
<polygon fill="#8dd3c7" stroke="transparent" points="724.5,-10 724.5,-30 744.5,-30 744.5,-10 724.5,-10"/>
<text text-anchor="start" x="748.2251" y="-15.4" font-family="sans-serif" font-size="14.00" fill="#000000"> &#160;Module</text>
<polygon fill="#80b1d3" stroke="transparent" points="810.5,-10 810.5,-30 830.5,-30 830.5,-10 810.5,-10"/>
<text text-anchor="start" x="834.2812" y="-15.4" font-family="sans-serif" font-size="14.00" fill="#000000"> &#160;Bootstrap</text>
<polygon fill="#fdb462" stroke="transparent" points="907.5,-10 907.5,-30 927.5,-30 927.5,-10 907.5,-10"/>
<text text-anchor="start" x="931.1732" y="-15.4" font-family="sans-serif" font-size="14.00" fill="#000000"> &#160;Providers</text>
<polygon fill="#fb8072" stroke="transparent" points="1003.5,-10 1003.5,-30 1023.5,-30 1023.5,-10 1003.5,-10"/>
<text text-anchor="start" x="1027.2258" y="-15.4" font-family="sans-serif" font-size="14.00" fill="#000000"> &#160;Exports</text>
<g id="clust1" class="cluster">
<title>cluster_AppModule</title>
<polygon fill="none" stroke="#000000" stroke-dasharray="1,5" points="8,-70 8,-268 1683,-268 1683,-70 8,-70"/>
</g>
<g id="clust2" class="cluster">
<title>cluster_AppModule_declarations</title>
<polygon fill="none" stroke="#000000" points="352,-78 352,-130 1675,-130 1675,-78 352,-78"/>
</g>
<g id="clust13" class="cluster">
<title>cluster_AppModule_imports</title>
<polygon fill="none" stroke="#000000" points="200,-78 200,-130 344,-130 344,-78 200,-78"/>
</g>
<g id="clust15" class="cluster">
<title>cluster_AppModule_bootstrap</title>
<polygon fill="none" stroke="#000000" points="851,-208 851,-260 975,-260 975,-208 851,-208"/>
</g>
<g id="clust16" class="cluster">
<title>cluster_AppModule_providers</title>
<polygon fill="none" stroke="#000000" points="16,-78 16,-130 192,-130 192,-78 16,-78"/>
</g>
<!-- AppComponent -->
<g id="node1" class="node">
<title>AppComponent</title>
<polygon fill="#ffffb3" stroke="#000000" points="1666.9399,-122 1561.0601,-122 1561.0601,-86 1666.9399,-86 1666.9399,-122"/>
<text text-anchor="middle" x="1614" y="-99.8" font-family="Times,serif" font-size="14.00" fill="#000000">AppComponent</text>
</g>
<!-- AppModule -->
<g id="node11" class="node">
<title>AppModule</title>
<polygon fill="#8dd3c7" stroke="#000000" points="954.6571,-187 951.6571,-191 930.6571,-191 927.6571,-187 871.3429,-187 871.3429,-151 954.6571,-151 954.6571,-187"/>
<text text-anchor="middle" x="913" y="-164.8" font-family="Times,serif" font-size="14.00" fill="#000000">AppModule</text>
</g>
<!-- AppComponent&#45;&gt;AppModule -->
<g id="edge1" class="edge">
<title>AppComponent&#45;&gt;AppModule</title>
<path fill="none" stroke="#000000" d="M1614,-122.2479C1614,-145.0179 1614,-181 1614,-181 1614,-181 964.7514,-181 964.7514,-181"/>
<polygon fill="#000000" stroke="#000000" points="964.7515,-177.5001 954.7514,-181 964.7514,-184.5001 964.7515,-177.5001"/>
</g>
<!-- MenuComponent -->
<g id="node2" class="node">
<title>MenuComponent</title>
<polygon fill="#ffffb3" stroke="#000000" points="1542.9916,-122 1429.0084,-122 1429.0084,-86 1542.9916,-86 1542.9916,-122"/>
<text text-anchor="middle" x="1486" y="-99.8" font-family="Times,serif" font-size="14.00" fill="#000000">MenuComponent</text>
</g>
<!-- MenuComponent&#45;&gt;AppModule -->
<g id="edge2" class="edge">
<title>MenuComponent&#45;&gt;AppModule</title>
<path fill="none" stroke="#000000" d="M1486,-122.2843C1486,-143.3211 1486,-175 1486,-175 1486,-175 964.6703,-175 964.6703,-175"/>
<polygon fill="#000000" stroke="#000000" points="964.6703,-171.5001 954.6703,-175 964.6703,-178.5001 964.6703,-171.5001"/>
</g>
<!-- ListItemComponent -->
<g id="node3" class="node">
<title>ListItemComponent</title>
<polygon fill="#ffffb3" stroke="#000000" points="1411.2674,-122 1282.7326,-122 1282.7326,-86 1411.2674,-86 1411.2674,-122"/>
<text text-anchor="middle" x="1347" y="-99.8" font-family="Times,serif" font-size="14.00" fill="#000000">ListItemComponent</text>
</g>
<!-- ListItemComponent&#45;&gt;AppModule -->
<g id="edge3" class="edge">
<title>ListItemComponent&#45;&gt;AppModule</title>
<path fill="none" stroke="#000000" d="M1347,-122.1061C1347,-141.3391 1347,-169 1347,-169 1347,-169 965.0081,-169 965.0081,-169"/>
<polygon fill="#000000" stroke="#000000" points="965.0081,-165.5001 955.0081,-169 965.0081,-172.5001 965.0081,-165.5001"/>
</g>
<!-- ModalComponent -->
<g id="node4" class="node">
<title>ModalComponent</title>
<polygon fill="#ffffb3" stroke="#000000" points="1264.8823,-122 1147.1177,-122 1147.1177,-86 1264.8823,-86 1264.8823,-122"/>
<text text-anchor="middle" x="1206" y="-99.8" font-family="Times,serif" font-size="14.00" fill="#000000">ModalComponent</text>
</g>
<!-- ModalComponent&#45;&gt;AppModule -->
<g id="edge4" class="edge">
<title>ModalComponent&#45;&gt;AppModule</title>
<path fill="none" stroke="#000000" d="M1206,-122.0225C1206,-139.3734 1206,-163 1206,-163 1206,-163 964.6686,-163 964.6686,-163"/>
<polygon fill="#000000" stroke="#000000" points="964.6686,-159.5001 954.6686,-163 964.6686,-166.5001 964.6686,-159.5001"/>
</g>
<!-- FormComponent -->
<g id="node5" class="node">
<title>FormComponent</title>
<polygon fill="#ffffb3" stroke="#000000" points="1128.6667,-122 1017.3333,-122 1017.3333,-86 1128.6667,-86 1128.6667,-122"/>
<text text-anchor="middle" x="1073" y="-99.8" font-family="Times,serif" font-size="14.00" fill="#000000">FormComponent</text>
</g>
<!-- FormComponent&#45;&gt;AppModule -->
<g id="edge5" class="edge">
<title>FormComponent&#45;&gt;AppModule</title>
<path fill="none" stroke="#000000" d="M1073,-122.2396C1073,-137.5706 1073,-157 1073,-157 1073,-157 965.0381,-157 965.0381,-157"/>
<polygon fill="#000000" stroke="#000000" points="965.0382,-153.5001 955.0381,-157 965.0381,-160.5001 965.0382,-153.5001"/>
</g>
<!-- FilterPipe -->
<g id="node6" class="node">
<title>FilterPipe</title>
<polygon fill="#ffffb3" stroke="#000000" points="999.7177,-122 928.2823,-122 928.2823,-86 999.7177,-86 999.7177,-122"/>
<text text-anchor="middle" x="964" y="-99.8" font-family="Times,serif" font-size="14.00" fill="#000000">FilterPipe</text>
</g>
<!-- FilterPipe&#45;&gt;AppModule -->
<g id="edge6" class="edge">
<title>FilterPipe&#45;&gt;AppModule</title>
<path fill="none" stroke="#000000" d="M941.6098,-122.1061C941.6098,-122.1061 941.6098,-140.991 941.6098,-140.991"/>
<polygon fill="#000000" stroke="#000000" points="938.1098,-140.9909 941.6098,-150.991 945.1098,-140.991 938.1098,-140.9909"/>
</g>
<!-- StateDirective -->
<g id="node7" class="node">
<title>StateDirective</title>
<polygon fill="#ffffb3" stroke="#000000" points="910.0758,-122 813.9242,-122 813.9242,-86 910.0758,-86 910.0758,-122"/>
<text text-anchor="middle" x="862" y="-99.8" font-family="Times,serif" font-size="14.00" fill="#000000">StateDirective</text>
</g>
<!-- StateDirective&#45;&gt;AppModule -->
<g id="edge7" class="edge">
<title>StateDirective&#45;&gt;AppModule</title>
<path fill="none" stroke="#000000" d="M890.6049,-122.1061C890.6049,-122.1061 890.6049,-140.991 890.6049,-140.991"/>
<polygon fill="#000000" stroke="#000000" points="887.1049,-140.9909 890.6049,-150.991 894.1049,-140.991 887.1049,-140.9909"/>
</g>
<!-- HomeComponent -->
<g id="node8" class="node">
<title>HomeComponent</title>
<polygon fill="#ffffb3" stroke="#000000" points="795.5451,-122 680.4549,-122 680.4549,-86 795.5451,-86 795.5451,-122"/>
<text text-anchor="middle" x="738" y="-99.8" font-family="Times,serif" font-size="14.00" fill="#000000">HomeComponent</text>
</g>
<!-- HomeComponent&#45;&gt;AppModule -->
<g id="edge8" class="edge">
<title>HomeComponent&#45;&gt;AppModule</title>
<path fill="none" stroke="#000000" d="M738,-122.2396C738,-137.5706 738,-157 738,-157 738,-157 861.0831,-157 861.0831,-157"/>
<polygon fill="#000000" stroke="#000000" points="861.0832,-160.5001 871.0831,-157 861.0831,-153.5001 861.0832,-160.5001"/>
</g>
<!-- PageNotFoundComponent -->
<g id="node9" class="node">
<title>PageNotFoundComponent</title>
<polygon fill="#ffffb3" stroke="#000000" points="662.8243,-122 497.1757,-122 497.1757,-86 662.8243,-86 662.8243,-122"/>
<text text-anchor="middle" x="580" y="-99.8" font-family="Times,serif" font-size="14.00" fill="#000000">PageNotFoundComponent</text>
</g>
<!-- PageNotFoundComponent&#45;&gt;AppModule -->
<g id="edge9" class="edge">
<title>PageNotFoundComponent&#45;&gt;AppModule</title>
<path fill="none" stroke="#000000" d="M580,-122.0225C580,-139.3734 580,-163 580,-163 580,-163 861.1625,-163 861.1625,-163"/>
<polygon fill="#000000" stroke="#000000" points="861.1625,-166.5001 871.1625,-163 861.1625,-159.5001 861.1625,-166.5001"/>
</g>
<!-- WaiterComponent -->
<g id="node10" class="node">
<title>WaiterComponent</title>
<polygon fill="#ffffb3" stroke="#000000" points="479.9187,-122 360.0813,-122 360.0813,-86 479.9187,-86 479.9187,-122"/>
<text text-anchor="middle" x="420" y="-99.8" font-family="Times,serif" font-size="14.00" fill="#000000">WaiterComponent</text>
</g>
<!-- WaiterComponent&#45;&gt;AppModule -->
<g id="edge10" class="edge">
<title>WaiterComponent&#45;&gt;AppModule</title>
<path fill="none" stroke="#000000" d="M420,-122.1061C420,-141.3391 420,-169 420,-169 420,-169 860.9671,-169 860.9671,-169"/>
<polygon fill="#000000" stroke="#000000" points="860.9671,-172.5001 870.9671,-169 860.9671,-165.5001 860.9671,-172.5001"/>
</g>
<!-- AppComponent  -->
<g id="node13" class="node">
<title>AppComponent </title>
<polygon fill="#80b1d3" stroke="#000000" points="967.439,-252 858.561,-252 858.561,-216 967.439,-216 967.439,-252"/>
<text text-anchor="middle" x="913" y="-229.8" font-family="Times,serif" font-size="14.00" fill="#000000">AppComponent </text>
</g>
<!-- AppModule&#45;&gt;AppComponent  -->
<g id="edge12" class="edge">
<title>AppModule&#45;&gt;AppComponent </title>
<path fill="none" stroke="#000000" stroke-dasharray="1,5" d="M913,-187.1061C913,-187.1061 913,-205.991 913,-205.991"/>
<polygon fill="#000000" stroke="#000000" points="909.5001,-205.9909 913,-215.991 916.5001,-205.991 909.5001,-205.9909"/>
</g>
<!-- AppRoutingModule -->
<g id="node12" class="node">
<title>AppRoutingModule</title>
<polygon fill="#8dd3c7" stroke="#000000" points="336.2744,-122 333.2744,-126 312.2744,-126 309.2744,-122 207.7256,-122 207.7256,-86 336.2744,-86 336.2744,-122"/>
<text text-anchor="middle" x="272" y="-99.8" font-family="Times,serif" font-size="14.00" fill="#000000">AppRoutingModule</text>
</g>
<!-- AppRoutingModule&#45;&gt;AppModule -->
<g id="edge11" class="edge">
<title>AppRoutingModule&#45;&gt;AppModule</title>
<path fill="none" stroke="#000000" d="M272,-122.2843C272,-143.3211 272,-175 272,-175 272,-175 860.9422,-175 860.9422,-175"/>
<polygon fill="#000000" stroke="#000000" points="860.9422,-178.5001 870.9422,-175 860.9422,-171.5001 860.9422,-178.5001"/>
</g>
<!-- CollectionService -->
<g id="node14" class="node">
<title>CollectionService</title>
<ellipse fill="#fdb462" stroke="#000000" cx="104" cy="-104" rx="80.4519" ry="18"/>
<text text-anchor="middle" x="104" y="-99.8" font-family="Times,serif" font-size="14.00" fill="#000000">CollectionService</text>
</g>
<!-- CollectionService&#45;&gt;AppModule -->
<g id="edge13" class="edge">
<title>CollectionService&#45;&gt;AppModule</title>
<path fill="none" stroke="#000000" d="M104,-122.2479C104,-145.0179 104,-181 104,-181 104,-181 861.2082,-181 861.2082,-181"/>
<polygon fill="#000000" stroke="#000000" points="861.2082,-184.5001 871.2082,-181 861.2082,-177.5001 861.2082,-184.5001"/>
</g>
</g>
</svg>
