<?xml version="1.0" encoding="UTF-8" standalone="no"?>
<!DOCTYPE svg PUBLIC "-//W3C//DTD SVG 1.1//EN"
 "http://www.w3.org/Graphics/SVG/1.1/DTD/svg11.dtd">
<!-- Generated by graphviz version 2.40.1 (20161225.0304)
 -->
<!-- Title: dependencies Pages: 1 -->
<svg width="1332pt" height="284pt"
 viewBox="0.00 0.00 1332.00 284.00" xmlns="http://www.w3.org/2000/svg" xmlns:xlink="http://www.w3.org/1999/xlink">
<g id="graph0" class="graph" transform="scale(1 1) rotate(0) translate(4 280)">
<title>dependencies</title>
<polygon fill="#ffffff" stroke="transparent" points="-4,4 -4,-280 1328,-280 1328,4 -4,4"/>
<text text-anchor="start" x="641.0091" y="-42.4" font-family="sans-serif" font-weight="bold" font-size="14.00" fill="#000000">Legend</text>
<polygon fill="#ffffb3" stroke="transparent" points="428,-10 428,-30 448,-30 448,-10 428,-10"/>
<text text-anchor="start" x="451.629" y="-15.4" font-family="sans-serif" font-size="14.00" fill="#000000"> &#160;Declarations</text>
<polygon fill="#8dd3c7" stroke="transparent" points="541,-10 541,-30 561,-30 561,-10 541,-10"/>
<text text-anchor="start" x="564.7251" y="-15.4" font-family="sans-serif" font-size="14.00" fill="#000000"> &#160;Module</text>
<polygon fill="#80b1d3" stroke="transparent" points="627,-10 627,-30 647,-30 647,-10 627,-10"/>
<text text-anchor="start" x="650.7812" y="-15.4" font-family="sans-serif" font-size="14.00" fill="#000000"> &#160;Bootstrap</text>
<polygon fill="#fdb462" stroke="transparent" points="724,-10 724,-30 744,-30 744,-10 724,-10"/>
<text text-anchor="start" x="747.6732" y="-15.4" font-family="sans-serif" font-size="14.00" fill="#000000"> &#160;Providers</text>
<polygon fill="#fb8072" stroke="transparent" points="820,-10 820,-30 840,-30 840,-10 820,-10"/>
<text text-anchor="start" x="843.7258" y="-15.4" font-family="sans-serif" font-size="14.00" fill="#000000"> &#160;Exports</text>
<g id="clust1" class="cluster">
<title>cluster_AppModule</title>
<polygon fill="none" stroke="#000000" stroke-dasharray="1,5" points="8,-70 8,-268 1316,-268 1316,-70 8,-70"/>
</g>
<g id="clust2" class="cluster">
<title>cluster_AppModule_declarations</title>
<polygon fill="none" stroke="#000000" points="464,-78 464,-130 1308,-130 1308,-78 464,-78"/>
</g>
<g id="clust9" class="cluster">
<title>cluster_AppModule_imports</title>
<polygon fill="none" stroke="#000000" points="16,-78 16,-130 456,-130 456,-78 16,-78"/>
</g>
<g id="clust11" class="cluster">
<title>cluster_AppModule_bootstrap</title>
<polygon fill="none" stroke="#000000" points="630,-208 630,-260 754,-260 754,-208 630,-208"/>
</g>
<!-- AppComponent -->
<g id="node1" class="node">
<title>AppComponent</title>
<polygon fill="#ffffb3" stroke="#000000" points="1299.9399,-122 1194.0601,-122 1194.0601,-86 1299.9399,-86 1299.9399,-122"/>
<text text-anchor="middle" x="1247" y="-99.8" font-family="Times,serif" font-size="14.00" fill="#000000">AppComponent</text>
</g>
<!-- AppModule -->
<g id="node7" class="node">
<title>AppModule</title>
<polygon fill="#8dd3c7" stroke="#000000" points="733.6571,-187 730.6571,-191 709.6571,-191 706.6571,-187 650.3429,-187 650.3429,-151 733.6571,-151 733.6571,-187"/>
<text text-anchor="middle" x="692" y="-164.8" font-family="Times,serif" font-size="14.00" fill="#000000">AppModule</text>
</g>
<!-- AppComponent&#45;&gt;AppModule -->
<g id="edge1" class="edge">
<title>AppComponent&#45;&gt;AppModule</title>
<path fill="none" stroke="#000000" d="M1247,-122.0109C1247,-144.4852 1247,-180 1247,-180 1247,-180 743.7152,-180 743.7152,-180"/>
<polygon fill="#000000" stroke="#000000" points="743.7152,-176.5001 733.7152,-180 743.7152,-183.5001 743.7152,-176.5001"/>
</g>
<!-- MenuComponent -->
<g id="node2" class="node">
<title>MenuComponent</title>
<polygon fill="#ffffb3" stroke="#000000" points="1175.9916,-122 1062.0084,-122 1062.0084,-86 1175.9916,-86 1175.9916,-122"/>
<text text-anchor="middle" x="1119" y="-99.8" font-family="Times,serif" font-size="14.00" fill="#000000">MenuComponent</text>
</g>
<!-- MenuComponent&#45;&gt;AppModule -->
<g id="edge2" class="edge">
<title>MenuComponent&#45;&gt;AppModule</title>
<path fill="none" stroke="#000000" d="M1119,-122.1289C1119,-142.5724 1119,-173 1119,-173 1119,-173 743.72,-173 743.72,-173"/>
<polygon fill="#000000" stroke="#000000" points="743.7201,-169.5001 733.72,-173 743.72,-176.5001 743.7201,-169.5001"/>
</g>
<!-- ModalComponent -->
<g id="node3" class="node">
<title>ModalComponent</title>
<polygon fill="#ffffb3" stroke="#000000" points="1043.8823,-122 926.1177,-122 926.1177,-86 1043.8823,-86 1043.8823,-122"/>
<text text-anchor="middle" x="985" y="-99.8" font-family="Times,serif" font-size="14.00" fill="#000000">ModalComponent</text>
</g>
<!-- ModalComponent&#45;&gt;AppModule -->
<g id="edge3" class="edge">
<title>ModalComponent&#45;&gt;AppModule</title>
<path fill="none" stroke="#000000" d="M985,-122.2667C985,-140.5552 985,-166 985,-166 985,-166 743.6686,-166 743.6686,-166"/>
<polygon fill="#000000" stroke="#000000" points="743.6686,-162.5001 733.6686,-166 743.6686,-169.5001 743.6686,-162.5001"/>
</g>
<!-- HomeComponent -->
<g id="node4" class="node">
<title>HomeComponent</title>
<polygon fill="#ffffb3" stroke="#000000" points="907.5451,-122 792.4549,-122 792.4549,-86 907.5451,-86 907.5451,-122"/>
<text text-anchor="middle" x="850" y="-99.8" font-family="Times,serif" font-size="14.00" fill="#000000">HomeComponent</text>
</g>
<!-- HomeComponent&#45;&gt;AppModule -->
<g id="edge4" class="edge">
<title>HomeComponent&#45;&gt;AppModule</title>
<path fill="none" stroke="#000000" d="M850,-122.0091C850,-138.0494 850,-159 850,-159 850,-159 743.9263,-159 743.9263,-159"/>
<polygon fill="#000000" stroke="#000000" points="743.9263,-155.5001 733.9263,-159 743.9262,-162.5001 743.9263,-155.5001"/>
</g>
<!-- PageNotFoundComponent -->
<g id="node5" class="node">
<title>PageNotFoundComponent</title>
<polygon fill="#ffffb3" stroke="#000000" points="774.8243,-122 609.1757,-122 609.1757,-86 774.8243,-86 774.8243,-122"/>
<text text-anchor="middle" x="692" y="-99.8" font-family="Times,serif" font-size="14.00" fill="#000000">PageNotFoundComponent</text>
</g>
<!-- PageNotFoundComponent&#45;&gt;AppModule -->
<g id="edge5" class="edge">
<title>PageNotFoundComponent&#45;&gt;AppModule</title>
<path fill="none" stroke="#000000" d="M692,-122.1061C692,-122.1061 692,-140.991 692,-140.991"/>
<polygon fill="#000000" stroke="#000000" points="688.5001,-140.9909 692,-150.991 695.5001,-140.991 688.5001,-140.9909"/>
</g>
<!-- WaiterComponent -->
<g id="node6" class="node">
<title>WaiterComponent</title>
<polygon fill="#ffffb3" stroke="#000000" points="591.9187,-122 472.0813,-122 472.0813,-86 591.9187,-86 591.9187,-122"/>
<text text-anchor="middle" x="532" y="-99.8" font-family="Times,serif" font-size="14.00" fill="#000000">WaiterComponent</text>
</g>
<!-- WaiterComponent&#45;&gt;AppModule -->
<g id="edge6" class="edge">
<title>WaiterComponent&#45;&gt;AppModule</title>
<path fill="none" stroke="#000000" d="M532,-122.0091C532,-138.0494 532,-159 532,-159 532,-159 639.9619,-159 639.9619,-159"/>
<polygon fill="#000000" stroke="#000000" points="639.9619,-162.5001 649.9619,-159 639.9618,-155.5001 639.9619,-162.5001"/>
</g>
<!-- AppComponent  -->
<g id="node11" class="node">
<title>AppComponent </title>
<polygon fill="#80b1d3" stroke="#000000" points="746.439,-252 637.561,-252 637.561,-216 746.439,-216 746.439,-252"/>
<text text-anchor="middle" x="692" y="-229.8" font-family="Times,serif" font-size="14.00" fill="#000000">AppComponent </text>
</g>
<!-- AppModule&#45;&gt;AppComponent  -->
<g id="edge10" class="edge">
<title>AppModule&#45;&gt;AppComponent </title>
<path fill="none" stroke="#000000" stroke-dasharray="1,5" d="M692,-187.1061C692,-187.1061 692,-205.991 692,-205.991"/>
<polygon fill="#000000" stroke="#000000" points="688.5001,-205.9909 692,-215.991 695.5001,-205.991 688.5001,-205.9909"/>
</g>
<!-- ItemRoutingModule -->
<g id="node8" class="node">
<title>ItemRoutingModule</title>
<polygon fill="#8dd3c7" stroke="#000000" points="448.3244,-122 445.3244,-126 424.3244,-126 421.3244,-122 317.6756,-122 317.6756,-86 448.3244,-86 448.3244,-122"/>
<text text-anchor="middle" x="383" y="-99.8" font-family="Times,serif" font-size="14.00" fill="#000000">ItemRoutingModule</text>
</g>
<!-- ItemRoutingModule&#45;&gt;AppModule -->
<g id="edge7" class="edge">
<title>ItemRoutingModule&#45;&gt;AppModule</title>
<path fill="none" stroke="#000000" d="M383,-122.2667C383,-140.5552 383,-166 383,-166 383,-166 640.3269,-166 640.3269,-166"/>
<polygon fill="#000000" stroke="#000000" points="640.3269,-169.5001 650.3269,-166 640.3269,-162.5001 640.3269,-169.5001"/>
</g>
<!-- AppRoutingModule -->
<g id="node9" class="node">
<title>AppRoutingModule</title>
<polygon fill="#8dd3c7" stroke="#000000" points="299.2744,-122 296.2744,-126 275.2744,-126 272.2744,-122 170.7256,-122 170.7256,-86 299.2744,-86 299.2744,-122"/>
<text text-anchor="middle" x="235" y="-99.8" font-family="Times,serif" font-size="14.00" fill="#000000">AppRoutingModule</text>
</g>
<!-- AppRoutingModule&#45;&gt;AppModule -->
<g id="edge8" class="edge">
<title>AppRoutingModule&#45;&gt;AppModule</title>
<path fill="none" stroke="#000000" d="M235,-122.1289C235,-142.5724 235,-173 235,-173 235,-173 640.2328,-173 640.2328,-173"/>
<polygon fill="#000000" stroke="#000000" points="640.2328,-176.5001 650.2328,-173 640.2328,-169.5001 640.2328,-176.5001"/>
</g>
<!-- ItemModuleModule -->
<g id="node10" class="node">
<title>ItemModuleModule</title>
<polygon fill="#8dd3c7" stroke="#000000" points="152.2562,-122 149.2562,-126 128.2562,-126 125.2562,-122 23.7438,-122 23.7438,-86 152.2562,-86 152.2562,-122"/>
<text text-anchor="middle" x="88" y="-99.8" font-family="Times,serif" font-size="14.00" fill="#000000">ItemModuleModule</text>
</g>
<!-- ItemModuleModule&#45;&gt;AppModule -->
<g id="edge9" class="edge">
<title>ItemModuleModule&#45;&gt;AppModule</title>
<path fill="none" stroke="#000000" d="M88,-122.0109C88,-144.4852 88,-180 88,-180 88,-180 640.0074,-180 640.0074,-180"/>
<polygon fill="#000000" stroke="#000000" points="640.0075,-183.5001 650.0074,-180 640.0074,-176.5001 640.0075,-183.5001"/>
</g>
</g>
</svg>
