<?xml version="1.0" encoding="UTF-8" standalone="no"?>
<!DOCTYPE svg PUBLIC "-//W3C//DTD SVG 1.1//EN"
 "http://www.w3.org/Graphics/SVG/1.1/DTD/svg11.dtd">
<!-- Generated by graphviz version 2.40.1 (20161225.0304)
 -->
<!-- Title: dependencies Pages: 1 -->
<svg width="1701pt" height="360pt"
 viewBox="0.00 0.00 1701.00 360.00" xmlns="http://www.w3.org/2000/svg" xmlns:xlink="http://www.w3.org/1999/xlink">
<g id="graph0" class="graph" transform="scale(1 1) rotate(0) translate(4 356)">
<title>dependencies</title>
<polygon fill="#ffffff" stroke="transparent" points="-4,4 -4,-356 1697,-356 1697,4 -4,4"/>
<text text-anchor="start" x="825.5091" y="-42.4" font-family="sans-serif" font-weight="bold" font-size="14.00" fill="#000000">Legend</text>
<polygon fill="#ffffb3" stroke="transparent" points="612.5,-10 612.5,-30 632.5,-30 632.5,-10 612.5,-10"/>
<text text-anchor="start" x="636.129" y="-15.4" font-family="sans-serif" font-size="14.00" fill="#000000"> &#160;Declarations</text>
<polygon fill="#8dd3c7" stroke="transparent" points="725.5,-10 725.5,-30 745.5,-30 745.5,-10 725.5,-10"/>
<text text-anchor="start" x="749.2251" y="-15.4" font-family="sans-serif" font-size="14.00" fill="#000000"> &#160;Module</text>
<polygon fill="#80b1d3" stroke="transparent" points="811.5,-10 811.5,-30 831.5,-30 831.5,-10 811.5,-10"/>
<text text-anchor="start" x="835.2812" y="-15.4" font-family="sans-serif" font-size="14.00" fill="#000000"> &#160;Bootstrap</text>
<polygon fill="#fdb462" stroke="transparent" points="908.5,-10 908.5,-30 928.5,-30 928.5,-10 908.5,-10"/>
<text text-anchor="start" x="932.1732" y="-15.4" font-family="sans-serif" font-size="14.00" fill="#000000"> &#160;Providers</text>
<polygon fill="#fb8072" stroke="transparent" points="1004.5,-10 1004.5,-30 1024.5,-30 1024.5,-10 1004.5,-10"/>
<text text-anchor="start" x="1028.2258" y="-15.4" font-family="sans-serif" font-size="14.00" fill="#000000"> &#160;Exports</text>
<g id="clust1" class="cluster">
<title>cluster_AppModule</title>
<polygon fill="none" stroke="#000000" stroke-dasharray="1,5" points="377,-146 377,-344 1685,-344 1685,-146 377,-146"/>
</g>
<g id="clust2" class="cluster">
<title>cluster_AppModule_declarations</title>
<polygon fill="none" stroke="#000000" points="833,-154 833,-206 1677,-206 1677,-154 833,-154"/>
</g>
<g id="clust9" class="cluster">
<title>cluster_AppModule_imports</title>
<polygon fill="none" stroke="#000000" points="385,-154 385,-206 825,-206 825,-154 385,-154"/>
</g>
<g id="clust11" class="cluster">
<title>cluster_AppModule_bootstrap</title>
<polygon fill="none" stroke="#000000" points="999,-284 999,-336 1123,-336 1123,-284 999,-284"/>
</g>
<g id="clust19" class="cluster">
<title>cluster_ItemModuleModule</title>
<polygon fill="none" stroke="#000000" stroke-dasharray="1,5" points="8,-70 8,-138 835,-138 835,-70 8,-70"/>
</g>
<g id="clust20" class="cluster">
<title>cluster_ItemModuleModule_declarations</title>
<polygon fill="none" stroke="#000000" points="350,-78 350,-130 827,-130 827,-78 350,-78"/>
</g>
<g id="clust28" class="cluster">
<title>cluster_ItemModuleModule_providers</title>
<polygon fill="none" stroke="#000000" points="16,-78 16,-130 342,-130 342,-78 16,-78"/>
</g>
<!-- AppComponent -->
<g id="node1" class="node">
<title>AppComponent</title>
<polygon fill="#ffffb3" stroke="#000000" points="1668.9399,-198 1563.0601,-198 1563.0601,-162 1668.9399,-162 1668.9399,-198"/>
<text text-anchor="middle" x="1616" y="-175.8" font-family="Times,serif" font-size="14.00" fill="#000000">AppComponent</text>
</g>
<!-- AppModule -->
<g id="node7" class="node">
<title>AppModule</title>
<polygon fill="#8dd3c7" stroke="#000000" points="1102.6571,-263 1099.6571,-267 1078.6571,-267 1075.6571,-263 1019.3429,-263 1019.3429,-227 1102.6571,-227 1102.6571,-263"/>
<text text-anchor="middle" x="1061" y="-240.8" font-family="Times,serif" font-size="14.00" fill="#000000">AppModule</text>
</g>
<!-- AppComponent&#45;&gt;AppModule -->
<g id="edge1" class="edge">
<title>AppComponent&#45;&gt;AppModule</title>
<path fill="none" stroke="#000000" d="M1616,-198.0109C1616,-220.4852 1616,-256 1616,-256 1616,-256 1112.7152,-256 1112.7152,-256"/>
<polygon fill="#000000" stroke="#000000" points="1112.7152,-252.5001 1102.7152,-256 1112.7152,-259.5001 1112.7152,-252.5001"/>
</g>
<!-- MenuComponent -->
<g id="node2" class="node">
<title>MenuComponent</title>
<polygon fill="#ffffb3" stroke="#000000" points="1544.9916,-198 1431.0084,-198 1431.0084,-162 1544.9916,-162 1544.9916,-198"/>
<text text-anchor="middle" x="1488" y="-175.8" font-family="Times,serif" font-size="14.00" fill="#000000">MenuComponent</text>
</g>
<!-- MenuComponent&#45;&gt;AppModule -->
<g id="edge2" class="edge">
<title>MenuComponent&#45;&gt;AppModule</title>
<path fill="none" stroke="#000000" d="M1488,-198.1289C1488,-218.5724 1488,-249 1488,-249 1488,-249 1112.72,-249 1112.72,-249"/>
<polygon fill="#000000" stroke="#000000" points="1112.7201,-245.5001 1102.72,-249 1112.72,-252.5001 1112.7201,-245.5001"/>
</g>
<!-- ModalComponent -->
<g id="node3" class="node">
<title>ModalComponent</title>
<polygon fill="#ffffb3" stroke="#000000" points="1412.8823,-198 1295.1177,-198 1295.1177,-162 1412.8823,-162 1412.8823,-198"/>
<text text-anchor="middle" x="1354" y="-175.8" font-family="Times,serif" font-size="14.00" fill="#000000">ModalComponent</text>
</g>
<!-- ModalComponent&#45;&gt;AppModule -->
<g id="edge3" class="edge">
<title>ModalComponent&#45;&gt;AppModule</title>
<path fill="none" stroke="#000000" d="M1354,-198.2667C1354,-216.5552 1354,-242 1354,-242 1354,-242 1112.6686,-242 1112.6686,-242"/>
<polygon fill="#000000" stroke="#000000" points="1112.6686,-238.5001 1102.6686,-242 1112.6686,-245.5001 1112.6686,-238.5001"/>
</g>
<!-- HomeComponent -->
<g id="node4" class="node">
<title>HomeComponent</title>
<polygon fill="#ffffb3" stroke="#000000" points="1276.5451,-198 1161.4549,-198 1161.4549,-162 1276.5451,-162 1276.5451,-198"/>
<text text-anchor="middle" x="1219" y="-175.8" font-family="Times,serif" font-size="14.00" fill="#000000">HomeComponent</text>
</g>
<!-- HomeComponent&#45;&gt;AppModule -->
<g id="edge4" class="edge">
<title>HomeComponent&#45;&gt;AppModule</title>
<path fill="none" stroke="#000000" d="M1219,-198.0091C1219,-214.0494 1219,-235 1219,-235 1219,-235 1112.9263,-235 1112.9263,-235"/>
<polygon fill="#000000" stroke="#000000" points="1112.9263,-231.5001 1102.9263,-235 1112.9262,-238.5001 1112.9263,-231.5001"/>
</g>
<!-- PageNotFoundComponent -->
<g id="node5" class="node">
<title>PageNotFoundComponent</title>
<polygon fill="#ffffb3" stroke="#000000" points="1143.8243,-198 978.1757,-198 978.1757,-162 1143.8243,-162 1143.8243,-198"/>
<text text-anchor="middle" x="1061" y="-175.8" font-family="Times,serif" font-size="14.00" fill="#000000">PageNotFoundComponent</text>
</g>
<!-- PageNotFoundComponent&#45;&gt;AppModule -->
<g id="edge5" class="edge">
<title>PageNotFoundComponent&#45;&gt;AppModule</title>
<path fill="none" stroke="#000000" d="M1061,-198.1061C1061,-198.1061 1061,-216.991 1061,-216.991"/>
<polygon fill="#000000" stroke="#000000" points="1057.5001,-216.9909 1061,-226.991 1064.5001,-216.991 1057.5001,-216.9909"/>
</g>
<!-- WaiterComponent -->
<g id="node6" class="node">
<title>WaiterComponent</title>
<polygon fill="#ffffb3" stroke="#000000" points="960.9187,-198 841.0813,-198 841.0813,-162 960.9187,-162 960.9187,-198"/>
<text text-anchor="middle" x="901" y="-175.8" font-family="Times,serif" font-size="14.00" fill="#000000">WaiterComponent</text>
</g>
<!-- WaiterComponent&#45;&gt;AppModule -->
<g id="edge6" class="edge">
<title>WaiterComponent&#45;&gt;AppModule</title>
<path fill="none" stroke="#000000" d="M901,-198.0091C901,-214.0494 901,-235 901,-235 901,-235 1008.9619,-235 1008.9619,-235"/>
<polygon fill="#000000" stroke="#000000" points="1008.9619,-238.5001 1018.9619,-235 1008.9618,-231.5001 1008.9619,-238.5001"/>
</g>
<!-- AppComponent  -->
<g id="node11" class="node">
<title>AppComponent </title>
<polygon fill="#80b1d3" stroke="#000000" points="1115.439,-328 1006.561,-328 1006.561,-292 1115.439,-292 1115.439,-328"/>
<text text-anchor="middle" x="1061" y="-305.8" font-family="Times,serif" font-size="14.00" fill="#000000">AppComponent </text>
</g>
<!-- AppModule&#45;&gt;AppComponent  -->
<g id="edge10" class="edge">
<title>AppModule&#45;&gt;AppComponent </title>
<path fill="none" stroke="#000000" stroke-dasharray="1,5" d="M1061,-263.1061C1061,-263.1061 1061,-281.991 1061,-281.991"/>
<polygon fill="#000000" stroke="#000000" points="1057.5001,-281.9909 1061,-291.991 1064.5001,-281.991 1057.5001,-281.9909"/>
</g>
<!-- ItemRoutingModule -->
<g id="node8" class="node">
<title>ItemRoutingModule</title>
<polygon fill="#8dd3c7" stroke="#000000" points="817.3244,-198 814.3244,-202 793.3244,-202 790.3244,-198 686.6756,-198 686.6756,-162 817.3244,-162 817.3244,-198"/>
<text text-anchor="middle" x="752" y="-175.8" font-family="Times,serif" font-size="14.00" fill="#000000">ItemRoutingModule</text>
</g>
<!-- ItemRoutingModule&#45;&gt;AppModule -->
<g id="edge7" class="edge">
<title>ItemRoutingModule&#45;&gt;AppModule</title>
<path fill="none" stroke="#000000" d="M752,-198.2667C752,-216.5552 752,-242 752,-242 752,-242 1009.3269,-242 1009.3269,-242"/>
<polygon fill="#000000" stroke="#000000" points="1009.3269,-245.5001 1019.3269,-242 1009.3269,-238.5001 1009.3269,-245.5001"/>
</g>
<!-- AppRoutingModule -->
<g id="node9" class="node">
<title>AppRoutingModule</title>
<polygon fill="#8dd3c7" stroke="#000000" points="668.2744,-198 665.2744,-202 644.2744,-202 641.2744,-198 539.7256,-198 539.7256,-162 668.2744,-162 668.2744,-198"/>
<text text-anchor="middle" x="604" y="-175.8" font-family="Times,serif" font-size="14.00" fill="#000000">AppRoutingModule</text>
</g>
<!-- AppRoutingModule&#45;&gt;AppModule -->
<g id="edge8" class="edge">
<title>AppRoutingModule&#45;&gt;AppModule</title>
<path fill="none" stroke="#000000" d="M604,-198.1289C604,-218.5724 604,-249 604,-249 604,-249 1009.2328,-249 1009.2328,-249"/>
<polygon fill="#000000" stroke="#000000" points="1009.2328,-252.5001 1019.2328,-249 1009.2328,-245.5001 1009.2328,-252.5001"/>
</g>
<!-- ItemModuleModule -->
<g id="node10" class="node">
<title>ItemModuleModule</title>
<polygon fill="#8dd3c7" stroke="#000000" points="521.2562,-198 518.2562,-202 497.2562,-202 494.2562,-198 392.7438,-198 392.7438,-162 521.2562,-162 521.2562,-198"/>
<text text-anchor="middle" x="457" y="-175.8" font-family="Times,serif" font-size="14.00" fill="#000000">ItemModuleModule</text>
</g>
<!-- ItemModuleModule&#45;&gt;AppModule -->
<g id="edge9" class="edge">
<title>ItemModuleModule&#45;&gt;AppModule</title>
<path fill="none" stroke="#000000" d="M457,-198.0109C457,-220.4852 457,-256 457,-256 457,-256 1009.0074,-256 1009.0074,-256"/>
<polygon fill="#000000" stroke="#000000" points="1009.0075,-259.5001 1019.0074,-256 1009.0074,-252.5001 1009.0075,-259.5001"/>
</g>
<!-- ListItemComponent -->
<g id="node12" class="node">
<title>ListItemComponent</title>
<polygon fill="#ffffb3" stroke="#000000" points="819.2674,-122 690.7326,-122 690.7326,-86 819.2674,-86 819.2674,-122"/>
<text text-anchor="middle" x="755" y="-99.8" font-family="Times,serif" font-size="14.00" fill="#000000">ListItemComponent</text>
</g>
<!-- ListItemComponent&#45;&gt;ItemModuleModule -->
<g id="edge11" class="edge">
<title>ListItemComponent&#45;&gt;ItemModuleModule</title>
<path fill="none" stroke="#000000" d="M753.8892,-122.0439C753.8892,-134.5633 753.8892,-149 753.8892,-149 753.8892,-149 509.1313,-149 509.1313,-149 509.1313,-149 509.1313,-151.9672 509.1313,-151.9672"/>
<polygon fill="#000000" stroke="#000000" points="505.6314,-151.9671 509.1313,-161.9672 512.6314,-151.9672 505.6314,-151.9671"/>
</g>
<!-- FormComponent -->
<g id="node13" class="node">
<title>FormComponent</title>
<polygon fill="#ffffb3" stroke="#000000" points="672.6667,-122 561.3333,-122 561.3333,-86 672.6667,-86 672.6667,-122"/>
<text text-anchor="middle" x="617" y="-99.8" font-family="Times,serif" font-size="14.00" fill="#000000">FormComponent</text>
</g>
<!-- FormComponent&#45;&gt;ItemModuleModule -->
<g id="edge12" class="edge">
<title>FormComponent&#45;&gt;ItemModuleModule</title>
<path fill="none" stroke="#000000" d="M614.777,-122.2434C614.777,-129.4297 614.777,-136 614.777,-136 614.777,-136 496.8847,-136 496.8847,-136 496.8847,-136 496.8847,-151.8495 496.8847,-151.8495"/>
<polygon fill="#000000" stroke="#000000" points="493.3847,-151.8494 496.8847,-161.8495 500.3847,-151.8495 493.3847,-151.8494"/>
</g>
<!-- FilterPipe -->
<g id="node14" class="node">
<title>FilterPipe</title>
<polygon fill="#ffffb3" stroke="#000000" points="543.7177,-122 472.2823,-122 472.2823,-86 543.7177,-86 543.7177,-122"/>
<text text-anchor="middle" x="508" y="-99.8" font-family="Times,serif" font-size="14.00" fill="#000000">FilterPipe</text>
</g>
<!-- FilterPipe&#45;&gt;ItemModuleModule -->
<g id="edge13" class="edge">
<title>FilterPipe&#45;&gt;ItemModuleModule</title>
<path fill="none" stroke="#000000" d="M484.638,-122.0109C484.638,-122.0109 484.638,-151.855 484.638,-151.855"/>
<polygon fill="#000000" stroke="#000000" points="481.1381,-151.8549 484.638,-161.855 488.1381,-151.855 481.1381,-151.8549"/>
</g>
<!-- StateDirective -->
<g id="node15" class="node">
<title>StateDirective</title>
<polygon fill="#ffffb3" stroke="#000000" points="454.0758,-122 357.9242,-122 357.9242,-86 454.0758,-86 454.0758,-122"/>
<text text-anchor="middle" x="406" y="-99.8" font-family="Times,serif" font-size="14.00" fill="#000000">StateDirective</text>
</g>
<!-- StateDirective&#45;&gt;ItemModuleModule -->
<g id="edge14" class="edge">
<title>StateDirective&#45;&gt;ItemModuleModule</title>
<path fill="none" stroke="#000000" d="M423.33,-122.0109C423.33,-122.0109 423.33,-151.855 423.33,-151.855"/>
<polygon fill="#000000" stroke="#000000" points="419.83,-151.8549 423.33,-161.855 426.83,-151.855 419.83,-151.8549"/>
</g>
<!-- CollectionService -->
<g id="node16" class="node">
<title>CollectionService</title>
<ellipse fill="#fdb462" stroke="#000000" cx="254" cy="-104" rx="80.4519" ry="18"/>
<text text-anchor="middle" x="254" y="-99.8" font-family="Times,serif" font-size="14.00" fill="#000000">CollectionService</text>
</g>
<!-- CollectionService&#45;&gt;ItemModuleModule -->
<g id="edge15" class="edge">
<title>CollectionService&#45;&gt;ItemModuleModule</title>
<path fill="none" stroke="#000000" d="M254,-122.0267C254,-142.7672 254,-174 254,-174 254,-174 382.4906,-174 382.4906,-174"/>
<polygon fill="#000000" stroke="#000000" points="382.4906,-177.5001 392.4906,-174 382.4906,-170.5001 382.4906,-177.5001"/>
</g>
<!-- WaiterService -->
<g id="node17" class="node">
<title>WaiterService</title>
<ellipse fill="#fdb462" stroke="#000000" cx="90" cy="-104" rx="66.0261" ry="18"/>
<text text-anchor="middle" x="90" y="-99.8" font-family="Times,serif" font-size="14.00" fill="#000000">WaiterService</text>
</g>
<!-- WaiterService&#45;&gt;ItemModuleModule -->
<g id="edge16" class="edge">
<title>WaiterService&#45;&gt;ItemModuleModule</title>
<path fill="none" stroke="#000000" d="M90,-122.1985C90,-146.3563 90,-186 90,-186 90,-186 382.6535,-186 382.6535,-186"/>
<polygon fill="#000000" stroke="#000000" points="382.6535,-189.5001 392.6535,-186 382.6535,-182.5001 382.6535,-189.5001"/>
</g>
</g>
</svg>
